<svg xmlns="http://www.w3.org/2000/svg" width="150" height="92.676" viewBox="0 0 150 92.676"><g transform="translate(2.5 2.5)"><g transform="translate(6513.5 10029.235)"><path d="M-72.5,0A72.3,72.3,0,0,1-49.829-52.663,72.251,72.251,0,0,1,0-72.5,72.345,72.345,0,0,1,55.481-46.673,72.209,72.209,0,0,1,72.5,0" transform="translate(-6441 -9956.735)" fill="none" stroke="#f5f5f5" stroke-linecap="round" stroke-linejoin="round" stroke-width="5"/><path d="M-72.5,0A72.3,72.3,0,0,1-49.829-52.663,72.251,72.251,0,0,1,0-72.5,72.345,72.345,0,0,1,55.481-46.673,72.209,72.209,0,0,1,72.5,0" transform="translate(-6441 -9956.735)" fill="none" stroke="#1dbafb" stroke-linecap="round" stroke-linejoin="round" stroke-dashoffset="230" stroke-width="5" stroke-dasharray="268"/><path d="M-16.618,0l.476-9.8h.77l3.794,6.314L-7.826-9.8h.77L-6.58,0H-7.77l-.322-7.308-3.346,5.586h-.35L-15.12-7.266-15.428,0ZM-1.75.182A8.671,8.671,0,0,1-3.073.07,8.544,8.544,0,0,1-4.466-.266V-10.36h1.19v4.172A2.7,2.7,0,0,1-2.3-7.049,2.843,2.843,0,0,1-.952-7.364,2.939,2.939,0,0,1,.693-6.9a3.07,3.07,0,0,1,1.1,1.288A4.427,4.427,0,0,1,2.184-3.7a4.269,4.269,0,0,1-.469,2.058A3.261,3.261,0,0,1,.364-.294,4.393,4.393,0,0,1-1.75.182Zm.014-1.036A2.589,2.589,0,0,0,.273-1.61,2.971,2.971,0,0,0,.966-3.7a2.965,2.965,0,0,0-.56-1.9,1.864,1.864,0,0,0-1.54-.7,1.894,1.894,0,0,0-1.582.763A3.35,3.35,0,0,0-3.3-3.444V-1.05A6.558,6.558,0,0,0-1.736-.854ZM3.92,2.94V-7.182H5l.014,1.12A2.564,2.564,0,0,1,6-7.021,2.9,2.9,0,0,1,7.42-7.364,2.964,2.964,0,0,1,9.079-6.9a3.079,3.079,0,0,1,1.1,1.281A4.381,4.381,0,0,1,10.57-3.71a4.227,4.227,0,0,1-.476,2.051A3.387,3.387,0,0,1,8.764-.3a4,4,0,0,1-2,.483A7.286,7.286,0,0,1,5.11,0V2.94Zm1.162-6.4v2.366a4.7,4.7,0,0,0,.8.182,6.143,6.143,0,0,0,.84.056,2.491,2.491,0,0,0,1.932-.763,2.957,2.957,0,0,0,.7-2.079,2.965,2.965,0,0,0-.56-1.9,1.864,1.864,0,0,0-1.54-.7,1.894,1.894,0,0,0-1.582.763A3.325,3.325,0,0,0,5.082-3.458ZM14.238.182a5.049,5.049,0,0,1-1.33-.175,3.223,3.223,0,0,1-1.05-.469l.266-.98a3.441,3.441,0,0,0,.959.434,4.093,4.093,0,0,0,1.169.168,1.9,1.9,0,0,0,1.148-.3.993.993,0,0,0,.406-.847.845.845,0,0,0-.357-.714,3.96,3.96,0,0,0-1.3-.5q-2.1-.532-2.1-2.058A1.833,1.833,0,0,1,12.8-6.79a3.069,3.069,0,0,1,1.932-.574,4.236,4.236,0,0,1,1.106.147,3.251,3.251,0,0,1,.966.427l-.252.98a3.231,3.231,0,0,0-.868-.385,3.448,3.448,0,0,0-.966-.147,1.826,1.826,0,0,0-1.078.28.9.9,0,0,0-.392.77.746.746,0,0,0,.35.637,4.221,4.221,0,0,0,1.2.483,3.653,3.653,0,0,1,1.659.826A1.826,1.826,0,0,1,17-1.988a1.926,1.926,0,0,1-.721,1.6A3.2,3.2,0,0,1,14.238.182Z" transform="translate(-6441.382 -9942)" fill="#787878"/><path d="M-12.614.182a4.174,4.174,0,0,1-2.093-.5A3.477,3.477,0,0,1-16.086-1.75a4.567,4.567,0,0,1-.49-2.17V-9.8h1.232v5.88a3.113,3.113,0,0,0,.728,2.191,2.586,2.586,0,0,0,2,.791,2.54,2.54,0,0,0,1.974-.8A3.118,3.118,0,0,0-9.912-3.92V-9.8H-8.68v5.88a4.536,4.536,0,0,1-.49,2.156A3.523,3.523,0,0,1-10.549-.329,4.07,4.07,0,0,1-12.614.182Zm6.09,2.758V-7.182h1.078l.014,1.12a2.564,2.564,0,0,1,.987-.959,2.9,2.9,0,0,1,1.421-.343A2.964,2.964,0,0,1-1.365-6.9a3.079,3.079,0,0,1,1.1,1.281A4.381,4.381,0,0,1,.126-3.71,4.227,4.227,0,0,1-.35-1.659,3.387,3.387,0,0,1-1.68-.3a4,4,0,0,1-2,.483A7.286,7.286,0,0,1-5.334,0V2.94Zm1.162-6.4v2.366a4.7,4.7,0,0,0,.8.182,6.143,6.143,0,0,0,.84.056,2.491,2.491,0,0,0,1.932-.763,2.957,2.957,0,0,0,.7-2.079,2.965,2.965,0,0,0-.56-1.9,1.864,1.864,0,0,0-1.54-.7,1.894,1.894,0,0,0-1.582.763A3.325,3.325,0,0,0-5.362-3.458ZM7.644.112q-2.436,0-2.436-2.6V-6.16h-1.3V-7.182h1.3V-8.96L6.4-9.534v2.352H8.582V-6.16H6.4v3.542A2,2,0,0,0,6.727-1.33,1.325,1.325,0,0,0,7.8-.938a1.932,1.932,0,0,0,.924-.224L8.848-.14a2.938,2.938,0,0,1-.581.182A3,3,0,0,1,7.644.112Zm5.74.07a3.543,3.543,0,0,1-1.855-.49,3.5,3.5,0,0,1-1.288-1.344A3.976,3.976,0,0,1,9.772-3.6a3.861,3.861,0,0,1,.476-1.925,3.617,3.617,0,0,1,1.3-1.344,3.478,3.478,0,0,1,1.841-.5,3.543,3.543,0,0,1,1.855.49,3.511,3.511,0,0,1,1.288,1.337A3.965,3.965,0,0,1,17-3.584a3.872,3.872,0,0,1-.476,1.918A3.62,3.62,0,0,1,15.232-.315,3.468,3.468,0,0,1,13.384.182Zm0-1.05a2.224,2.224,0,0,0,1.239-.35,2.407,2.407,0,0,0,.847-.966,3.088,3.088,0,0,0,.308-1.4A3.121,3.121,0,0,0,15.47-5a2.407,2.407,0,0,0-.847-.966,2.224,2.224,0,0,0-1.239-.35,2.224,2.224,0,0,0-1.239.35A2.418,2.418,0,0,0,11.3-5,3.077,3.077,0,0,0,10.99-3.6,3.121,3.121,0,0,0,11.3-2.184a2.407,2.407,0,0,0,.847.966A2.224,2.224,0,0,0,13.384-.868Z" transform="translate(-6441.424 -9991)" fill="#787878"/><path d="M-31.878,0V-1.764l8.064-8.964q1.62-1.836,2.556-3.1a9.6,9.6,0,0,0,1.314-2.268,5.615,5.615,0,0,0,.378-1.98,3.7,3.7,0,0,0-1.278-2.9A4.778,4.778,0,0,0-24.138-22.1a8.466,8.466,0,0,0-5.8,2.52l-1.044-3.456A10.53,10.53,0,0,1-27.612-25a11.63,11.63,0,0,1,4.014-.7,9.194,9.194,0,0,1,4.266.954,7.281,7.281,0,0,1,2.9,2.61,7.069,7.069,0,0,1,1.044,3.852,7.339,7.339,0,0,1-.5,2.646,13.7,13.7,0,0,1-1.71,2.988,48.389,48.389,0,0,1-3.4,4.086l-4.536,5.04h10.584V0ZM-1.89.5A8.316,8.316,0,0,1-7-1.134a10.649,10.649,0,0,1-3.42-4.59A17.855,17.855,0,0,1-11.646-12.6a17.752,17.752,0,0,1,1.224-6.84A10.78,10.78,0,0,1-7-24.048,8.256,8.256,0,0,1-1.89-25.7a8.372,8.372,0,0,1,5.148,1.638,10.663,10.663,0,0,1,3.42,4.572A17.822,17.822,0,0,1,7.9-12.6,17.752,17.752,0,0,1,6.678-5.76a10.78,10.78,0,0,1-3.42,4.608A8.311,8.311,0,0,1-1.89.5Zm0-3.636A4.639,4.639,0,0,0,2.232-5.688,13.414,13.414,0,0,0,3.762-12.6a13.414,13.414,0,0,0-1.53-6.912A4.639,4.639,0,0,0-1.89-22.068a4.614,4.614,0,0,0-4.086,2.556A13.414,13.414,0,0,0-7.506-12.6a13.414,13.414,0,0,0,1.53,6.912A4.614,4.614,0,0,0-1.89-3.132ZM21.186.5a8.316,8.316,0,0,1-5.112-1.638,10.649,10.649,0,0,1-3.42-4.59A17.855,17.855,0,0,1,11.43-12.6a17.752,17.752,0,0,1,1.224-6.84,10.78,10.78,0,0,1,3.42-4.608A8.256,8.256,0,0,1,21.186-25.7a8.372,8.372,0,0,1,5.148,1.638,10.663,10.663,0,0,1,3.42,4.572A17.822,17.822,0,0,1,30.978-12.6a17.752,17.752,0,0,1-1.224,6.84,10.78,10.78,0,0,1-3.42,4.608A8.311,8.311,0,0,1,21.186.5Zm0-3.636a4.639,4.639,0,0,0,4.122-2.556,13.414,13.414,0,0,0,1.53-6.912,13.414,13.414,0,0,0-1.53-6.912,4.639,4.639,0,0,0-4.122-2.556A4.614,4.614,0,0,0,17.1-19.512,13.414,13.414,0,0,0,15.57-12.6,13.414,13.414,0,0,0,17.1-5.688,4.614,4.614,0,0,0,21.186-3.132Z" transform="translate(-6440.122 -9958)" fill="#333"/></g></g></svg>