<svg xmlns="http://www.w3.org/2000/svg" width="150" height="92.676" viewBox="0 0 150 92.676"><g transform="translate(2.5 2.5)"><g transform="translate(6027.5 10029.235)"><path d="M-72.5,0A72.3,72.3,0,0,1-49.829-52.663,72.251,72.251,0,0,1,0-72.5,72.345,72.345,0,0,1,55.481-46.673,72.209,72.209,0,0,1,72.5,0" transform="translate(-5955 -9956.735)" fill="none" stroke="#f5f5f5" stroke-linecap="round" stroke-linejoin="round" stroke-width="5"/><path d="M-72.5,0A72.3,72.3,0,0,1-49.829-52.663,72.251,72.251,0,0,1,0-72.5,72.345,72.345,0,0,1,55.481-46.673,72.209,72.209,0,0,1,72.5,0" transform="translate(-5955 -9956.735)" fill="none" stroke="#1dbafb" stroke-linecap="round" stroke-linejoin="round" stroke-dashoffset="230" stroke-width="5" stroke-dasharray="420"/><path d="M-10.885.182A5.265,5.265,0,0,1-13.5-.455a4.572,4.572,0,0,1-1.785-1.778,5.277,5.277,0,0,1-.644-2.639,5.327,5.327,0,0,1,.378-2.023A4.961,4.961,0,0,1-14.49-8.519a4.823,4.823,0,0,1,1.6-1.078,5.138,5.138,0,0,1,2.009-.385,5.648,5.648,0,0,1,3.22.91l-.224,1.12a5.051,5.051,0,0,0-2.94-.91,3.886,3.886,0,0,0-1.988.5,3.514,3.514,0,0,0-1.351,1.4A4.269,4.269,0,0,0-14.651-4.9a4.33,4.33,0,0,0,.483,2.086,3.48,3.48,0,0,0,1.344,1.393,3.919,3.919,0,0,0,1.995.5,6.386,6.386,0,0,0,1.211-.112,3.354,3.354,0,0,0,.987-.336V-4.088H-11V-5.152h3.542V-.686A6.573,6.573,0,0,1-10.885.182Zm8.19,0A8.671,8.671,0,0,1-4.018.07,8.544,8.544,0,0,1-5.411-.266V-10.36h1.19v4.172a2.7,2.7,0,0,1,.973-.861A2.843,2.843,0,0,1-1.9-7.364,2.939,2.939,0,0,1-.252-6.9a3.07,3.07,0,0,1,1.1,1.288A4.427,4.427,0,0,1,1.239-3.7,4.269,4.269,0,0,1,.77-1.638,3.261,3.261,0,0,1-.581-.294,4.393,4.393,0,0,1-2.7.182Zm.014-1.036A2.589,2.589,0,0,0-.672-1.61,2.971,2.971,0,0,0,.021-3.7a2.965,2.965,0,0,0-.56-1.9,1.864,1.864,0,0,0-1.54-.7,1.894,1.894,0,0,0-1.582.763,3.35,3.35,0,0,0-.588,2.093V-1.05A6.558,6.558,0,0,0-2.681-.854ZM2.975,2.94V-7.182H4.053l.014,1.12a2.564,2.564,0,0,1,.987-.959,2.9,2.9,0,0,1,1.421-.343A2.964,2.964,0,0,1,8.134-6.9a3.079,3.079,0,0,1,1.1,1.281A4.381,4.381,0,0,1,9.625-3.71a4.227,4.227,0,0,1-.476,2.051A3.387,3.387,0,0,1,7.819-.3a4,4,0,0,1-2,.483A7.286,7.286,0,0,1,4.165,0V2.94Zm1.162-6.4v2.366a4.7,4.7,0,0,0,.8.182,6.143,6.143,0,0,0,.84.056,2.491,2.491,0,0,0,1.932-.763,2.957,2.957,0,0,0,.7-2.079,2.965,2.965,0,0,0-.56-1.9,1.864,1.864,0,0,0-1.54-.7,1.894,1.894,0,0,0-1.582.763A3.325,3.325,0,0,0,4.137-3.458ZM13.293.182a5.049,5.049,0,0,1-1.33-.175,3.223,3.223,0,0,1-1.05-.469l.266-.98a3.441,3.441,0,0,0,.959.434,4.093,4.093,0,0,0,1.169.168,1.9,1.9,0,0,0,1.148-.3.993.993,0,0,0,.406-.847A.845.845,0,0,0,14.5-2.7a3.96,3.96,0,0,0-1.3-.5q-2.1-.532-2.1-2.058a1.833,1.833,0,0,1,.742-1.526,3.069,3.069,0,0,1,1.932-.574,4.236,4.236,0,0,1,1.106.147,3.251,3.251,0,0,1,.966.427l-.252.98a3.231,3.231,0,0,0-.868-.385,3.448,3.448,0,0,0-.966-.147,1.826,1.826,0,0,0-1.078.28.9.9,0,0,0-.392.77.746.746,0,0,0,.35.637,4.221,4.221,0,0,0,1.2.483,3.653,3.653,0,0,1,1.659.826,1.826,1.826,0,0,1,.539,1.358,1.926,1.926,0,0,1-.721,1.6A3.2,3.2,0,0,1,13.293.182Z" transform="translate(-5955.075 -9942)" fill="#787878"/><path d="M-12.614.182a4.174,4.174,0,0,1-2.093-.5A3.477,3.477,0,0,1-16.086-1.75a4.567,4.567,0,0,1-.49-2.17V-9.8h1.232v5.88a3.113,3.113,0,0,0,.728,2.191,2.586,2.586,0,0,0,2,.791,2.54,2.54,0,0,0,1.974-.8A3.118,3.118,0,0,0-9.912-3.92V-9.8H-8.68v5.88a4.536,4.536,0,0,1-.49,2.156A3.523,3.523,0,0,1-10.549-.329,4.07,4.07,0,0,1-12.614.182Zm6.09,2.758V-7.182h1.078l.014,1.12a2.564,2.564,0,0,1,.987-.959,2.9,2.9,0,0,1,1.421-.343A2.964,2.964,0,0,1-1.365-6.9a3.079,3.079,0,0,1,1.1,1.281A4.381,4.381,0,0,1,.126-3.71,4.227,4.227,0,0,1-.35-1.659,3.387,3.387,0,0,1-1.68-.3a4,4,0,0,1-2,.483A7.286,7.286,0,0,1-5.334,0V2.94Zm1.162-6.4v2.366a4.7,4.7,0,0,0,.8.182,6.143,6.143,0,0,0,.84.056,2.491,2.491,0,0,0,1.932-.763,2.957,2.957,0,0,0,.7-2.079,2.965,2.965,0,0,0-.56-1.9,1.864,1.864,0,0,0-1.54-.7,1.894,1.894,0,0,0-1.582.763A3.325,3.325,0,0,0-5.362-3.458ZM7.644.112q-2.436,0-2.436-2.6V-6.16h-1.3V-7.182h1.3V-8.96L6.4-9.534v2.352H8.582V-6.16H6.4v3.542A2,2,0,0,0,6.727-1.33,1.325,1.325,0,0,0,7.8-.938a1.932,1.932,0,0,0,.924-.224L8.848-.14a2.938,2.938,0,0,1-.581.182A3,3,0,0,1,7.644.112Zm5.74.07a3.543,3.543,0,0,1-1.855-.49,3.5,3.5,0,0,1-1.288-1.344A3.976,3.976,0,0,1,9.772-3.6a3.861,3.861,0,0,1,.476-1.925,3.617,3.617,0,0,1,1.3-1.344,3.478,3.478,0,0,1,1.841-.5,3.543,3.543,0,0,1,1.855.49,3.511,3.511,0,0,1,1.288,1.337A3.965,3.965,0,0,1,17-3.584a3.872,3.872,0,0,1-.476,1.918A3.62,3.62,0,0,1,15.232-.315,3.468,3.468,0,0,1,13.384.182Zm0-1.05a2.224,2.224,0,0,0,1.239-.35,2.407,2.407,0,0,0,.847-.966,3.088,3.088,0,0,0,.308-1.4A3.121,3.121,0,0,0,15.47-5a2.407,2.407,0,0,0-.847-.966,2.224,2.224,0,0,0-1.239-.35,2.224,2.224,0,0,0-1.239.35A2.418,2.418,0,0,0,11.3-5,3.077,3.077,0,0,0,10.99-3.6,3.121,3.121,0,0,0,11.3-2.184a2.407,2.407,0,0,0,.847.966A2.224,2.224,0,0,0,13.384-.868Z" transform="translate(-5955.424 -9991)" fill="#787878"/><path d="M-.2,0V-20.628l-5.436,2.412-.54-3.384,7.74-3.6H3.834V0Z" transform="translate(-5955.826 -9958)" fill="#333"/></g></g></svg>